<svg width="125" height="125" viewBox="0 0 125 125" fill="none" xmlns="http://www.w3.org/2000/svg">
<rect width="125" height="125" rx="15" fill="#97D3FF"/>
<g style="mix-blend-mode:luminosity">
<path d="M63.1907 73.4333C69.0085 73.4333 73.7247 68.7171 73.7247 62.8993C73.7247 57.0815 69.0085 52.3652 63.1907 52.3652C57.3729 52.3652 52.6566 57.0815 52.6566 62.8993C52.6566 68.7171 57.3729 73.4333 63.1907 73.4333Z" fill="#00D8FF" stroke="black"/>
<mask id="path-3-outside-1_1_195" maskUnits="userSpaceOnUse" x="6" y="39.085" width="115" height="48" fill="black">
<rect fill="white" x="6" y="39.085" width="115" height="48"/>
<path d="M63.1907 85.9054C51.1303 86.1971 39.1001 84.5714 27.5497 81.089C22.2141 79.3977 17.2377 76.7332 12.8719 73.2304C11.206 72.0337 9.81865 70.4909 8.8051 68.7076C7.79154 66.9243 7.17576 64.9429 7 62.8993C7 56.2648 14.2887 49.7627 26.4982 45.5083C38.3574 41.7385 50.7482 39.9114 63.1907 40.0979C75.4672 39.9264 87.692 41.7204 99.4016 45.412C104.54 47.0501 109.348 49.5858 113.602 52.9014C115.239 54.0422 116.606 55.5292 117.605 57.257C118.603 58.9847 119.21 60.911 119.381 62.8993C119.381 69.7947 111.234 76.7824 98.1092 81.1252C86.7825 84.4941 75.0061 86.1062 63.1907 85.9054ZM63.1907 44.8982C51.2868 44.7391 39.4334 46.476 28.0755 50.0437C16.8374 53.965 11.8003 59.3272 11.8003 62.8873C11.8003 66.6119 17.2147 72.4678 29.103 76.5336C40.1528 79.8483 51.658 81.3912 63.1907 81.1051C74.4947 81.3072 85.763 79.7777 96.6041 76.5697C108.946 72.4798 114.565 66.6159 114.565 62.8993C114.363 61.6239 113.898 60.4043 113.2 59.3176C112.502 58.231 111.587 57.3008 110.511 56.5859C106.705 53.6445 102.411 51.3972 97.8243 49.9473C86.6224 46.4304 74.9305 44.7259 63.1907 44.8982Z"/>
</mask>
<path d="M63.1907 85.9054C51.1303 86.1971 39.1001 84.5714 27.5497 81.089C22.2141 79.3977 17.2377 76.7332 12.8719 73.2304C11.206 72.0337 9.81865 70.4909 8.8051 68.7076C7.79154 66.9243 7.17576 64.9429 7 62.8993C7 56.2648 14.2887 49.7627 26.4982 45.5083C38.3574 41.7385 50.7482 39.9114 63.1907 40.0979C75.4672 39.9264 87.692 41.7204 99.4016 45.412C104.54 47.0501 109.348 49.5858 113.602 52.9014C115.239 54.0422 116.606 55.5292 117.605 57.257C118.603 58.9847 119.21 60.911 119.381 62.8993C119.381 69.7947 111.234 76.7824 98.1092 81.1252C86.7825 84.4941 75.0061 86.1062 63.1907 85.9054ZM63.1907 44.8982C51.2868 44.7391 39.4334 46.476 28.0755 50.0437C16.8374 53.965 11.8003 59.3272 11.8003 62.8873C11.8003 66.6119 17.2147 72.4678 29.103 76.5336C40.1528 79.8483 51.658 81.3912 63.1907 81.1051C74.4947 81.3072 85.763 79.7777 96.6041 76.5697C108.946 72.4798 114.565 66.6159 114.565 62.8993C114.363 61.6239 113.898 60.4043 113.2 59.3176C112.502 58.231 111.587 57.3008 110.511 56.5859C106.705 53.6445 102.411 51.3972 97.8243 49.9473C86.6224 46.4304 74.9305 44.7259 63.1907 44.8982Z" fill="#00D8FF"/>
<path d="M63.1907 85.9054L63.2077 84.9055L63.1871 84.9052L63.1665 84.9057L63.1907 85.9054ZM27.5497 81.089L27.2476 82.0423L27.2543 82.0444L27.2611 82.0465L27.5497 81.089ZM12.8719 73.2304L13.4977 72.4504L13.477 72.4337L13.4553 72.4182L12.8719 73.2304ZM7 62.8993H6V62.9422L6.00368 62.985L7 62.8993ZM26.4982 45.5083L26.1952 44.5553L26.1821 44.5594L26.1691 44.564L26.4982 45.5083ZM63.1907 40.0979L63.1757 41.0978L63.1902 41.098L63.2047 41.0978L63.1907 40.0979ZM99.4016 45.412L99.7054 44.4592L99.7023 44.4582L99.4016 45.412ZM113.602 52.9014L112.987 53.6901L113.008 53.7066L113.03 53.7219L113.602 52.9014ZM119.381 62.8993H120.381V62.8563L120.378 62.8134L119.381 62.8993ZM98.1092 81.1252L98.3943 82.0837L98.4089 82.0793L98.4234 82.0745L98.1092 81.1252ZM63.1907 44.8982L63.1774 45.8981L63.1914 45.8983L63.2054 45.8981L63.1907 44.8982ZM28.0755 50.0437L27.7759 49.0896L27.7609 49.0943L27.7461 49.0995L28.0755 50.0437ZM29.103 76.5336L28.7794 77.4798L28.7974 77.4859L28.8157 77.4914L29.103 76.5336ZM63.1907 81.1051L63.2086 80.1053L63.1873 80.1049L63.1659 80.1054L63.1907 81.1051ZM96.6041 76.5697L96.8879 77.5286L96.9034 77.524L96.9187 77.5189L96.6041 76.5697ZM114.565 62.8993H115.565V62.8204L115.553 62.7425L114.565 62.8993ZM110.511 56.5859L109.9 57.3771L109.928 57.3989L109.958 57.4187L110.511 56.5859ZM97.8243 49.9473L98.1257 48.9939L98.1238 48.9933L97.8243 49.9473ZM63.1665 84.9057C51.212 85.1948 39.2874 83.5834 27.8384 80.1316L27.2611 82.0465C38.9129 85.5594 51.0486 87.1994 63.2149 86.9051L63.1665 84.9057ZM27.8519 80.1358C22.634 78.4817 17.7672 75.876 13.4977 72.4504L12.2461 74.0103C16.7081 77.5904 21.7943 80.3136 27.2476 82.0423L27.8519 80.1358ZM13.4553 72.4182C11.9065 71.3057 10.6168 69.8713 9.67448 68.2135L7.93571 69.2017C9.02054 71.1104 10.5054 72.7618 12.2885 74.0426L13.4553 72.4182ZM9.67448 68.2135C8.7322 66.5556 8.15972 64.7135 7.99632 62.8136L6.00368 62.985C6.19179 65.1723 6.85088 67.2931 7.93571 69.2017L9.67448 68.2135ZM8 62.8993C8 59.9691 9.6102 56.935 12.8362 54.0575C16.0568 51.1848 20.8026 48.5519 26.8272 46.4526L26.1691 44.564C19.9843 46.7191 14.981 49.4644 11.5049 52.565C8.03417 55.6608 6 59.195 6 62.8993H8ZM26.8011 46.4613C38.5576 42.7242 50.841 40.913 63.1757 41.0978L63.2057 39.098C50.6554 38.9099 38.1572 40.7528 26.1952 44.5553L26.8011 46.4613ZM63.2047 41.0978C75.3745 40.9278 87.4931 42.7062 99.101 46.3657L99.7023 44.4582C87.891 40.7346 75.5599 38.925 63.1768 39.098L63.2047 41.0978ZM99.0979 46.3647C104.124 47.967 108.826 50.4471 112.987 53.6901L114.217 52.1126C109.869 48.7245 104.956 46.1333 99.7054 44.4592L99.0979 46.3647ZM113.03 53.7219C114.547 54.7789 115.813 56.1566 116.739 57.7574L118.47 56.7565C117.398 54.9018 115.931 53.3055 114.173 52.0809L113.03 53.7219ZM116.739 57.7574C117.664 59.3582 118.226 61.143 118.385 62.9852L120.378 62.8134C120.194 60.679 119.543 58.6112 118.47 56.7565L116.739 57.7574ZM118.381 62.8993C118.381 65.9375 116.58 69.1556 113.016 72.2102C109.466 75.2531 104.275 78.0317 97.7951 80.1758L98.4234 82.0745C105.068 79.8759 110.513 76.9893 114.318 73.7288C118.109 70.48 120.381 66.7565 120.381 62.8993H118.381ZM97.8242 80.1667C86.5954 83.5064 74.9209 85.1046 63.2077 84.9055L63.1737 86.9052C75.0914 87.1078 86.9696 85.4817 98.3943 82.0837L97.8242 80.1667ZM63.2041 43.8983C51.194 43.7378 39.235 45.4901 27.7759 49.0896L28.3752 50.9977C39.6318 47.4618 51.3795 45.7404 63.1774 45.8981L63.2041 43.8983ZM27.7461 49.0995C22.045 51.0888 17.8572 53.4632 15.0741 55.8406C12.3314 58.1835 10.8003 60.6676 10.8003 62.8873H12.8003C12.8003 61.5469 13.7878 59.5698 16.3731 57.3613C18.9181 55.1872 22.8679 52.9199 28.405 50.9878L27.7461 49.0995ZM10.8003 62.8873C10.8003 65.1909 12.428 67.8395 15.3421 70.3412C18.301 72.8813 22.7472 75.4168 28.7794 77.4798L29.4266 75.5874C23.5704 73.5846 19.3654 71.1592 16.6449 68.8237C13.8798 66.4499 12.8003 64.3083 12.8003 62.8873H10.8003ZM28.8157 77.4914C39.9667 80.8364 51.5772 82.3935 63.2155 82.1048L63.1659 80.1054C51.7388 80.3889 40.339 78.8601 29.3903 75.5758L28.8157 77.4914ZM63.1728 82.1049C74.5789 82.3089 85.9489 80.7656 96.8879 77.5286L96.3204 75.6108C85.5771 78.7899 74.4105 80.3056 63.2086 80.1053L63.1728 82.1049ZM96.9187 77.5189C103.175 75.4459 107.784 72.9052 110.851 70.3646C113.867 67.8657 115.565 65.2147 115.565 62.8993H113.565C113.565 64.3005 112.453 66.4398 109.575 68.8245C106.747 71.1674 102.376 73.6037 96.2896 75.6205L96.9187 77.5189ZM115.553 62.7425C115.329 61.3305 114.814 59.9804 114.042 58.7773L112.359 59.8579C112.982 60.8283 113.397 61.9172 113.577 63.0561L115.553 62.7425ZM114.042 58.7773C113.269 57.5743 112.256 56.5445 111.065 55.7531L109.958 57.4187C110.918 58.057 111.736 58.8876 112.359 59.8579L114.042 58.7773ZM111.123 55.7946C107.224 52.7813 102.824 50.4792 98.1257 48.9939L97.5228 50.9008C101.997 52.3153 106.187 54.5076 109.9 57.3771L111.123 55.7946ZM98.1238 48.9933C86.8203 45.4444 75.0223 43.7245 63.176 43.8983L63.2054 45.8981C74.8386 45.7274 86.4244 47.4164 97.5247 50.9014L98.1238 48.9933Z" fill="black" mask="url(#path-3-outside-1_1_195)"/>
<path d="M34.7814 112.062L34.7813 112.062L34.7895 112.066C36.5058 113.014 38.4426 113.49 40.4025 113.445C42.6854 113.403 44.9449 112.976 47.0855 112.182L47.0855 112.182L47.093 112.179C52.3655 110.125 57.2124 107.114 61.3889 103.296L61.3941 103.291C70.2175 94.9914 77.6669 85.3431 83.4642 74.7068C89.5667 64.5287 94.0728 53.4753 96.8256 41.9317L96.8274 41.9241L96.829 41.9166C98.2325 35.1051 98.4435 29.0152 97.5351 24.1734C96.6283 19.3404 94.589 15.6771 91.4234 13.853L91.4051 13.8425L91.3859 13.8335C89.5119 12.9553 87.4677 12.5 85.3981 12.5C83.333 12.5 81.2931 12.9533 79.4223 13.8279C74.3748 15.8789 69.7302 18.8074 65.7036 22.4778L65.7024 22.4789C56.6189 30.8131 48.9271 40.5467 42.9183 51.3108C36.5142 62.0408 31.8873 73.7358 29.2167 85.943L29.2165 85.9429L29.2139 85.9565C27.9999 92.3497 27.8867 97.9854 28.8188 102.462C29.7501 106.934 31.74 110.307 34.7814 112.062ZM34.9149 87.0337C37.444 75.6611 41.7369 64.7556 47.6367 54.7124L47.6768 54.7467L47.9744 54.2122C53.6627 43.9997 60.9462 34.7617 69.5497 26.8476C73.0493 23.6309 77.089 21.0569 81.4829 19.2437L81.499 19.237L81.5147 19.2293C82.6098 18.6852 83.8058 18.3742 85.0272 18.316C86.2353 18.2585 87.4422 18.4494 88.5732 18.8769C89.9719 19.7053 91.2902 21.9224 91.919 25.6247C92.5469 29.3221 92.4651 34.3913 91.1633 40.7155C88.5368 51.6569 84.2513 62.1319 78.4554 71.7767L78.4499 71.7859L78.4447 71.7954C72.9617 81.8814 65.9157 91.0352 57.5686 98.9166C52.8745 103.016 48.6165 105.483 45.1593 106.698C41.672 107.924 39.0996 107.844 37.6858 107.026L37.6855 107.026C36.3257 106.24 35.0605 104.213 34.4275 100.82C33.7995 97.4535 33.8147 92.8373 34.9149 87.0337Z" fill="#00D8FF" stroke="black"/>
<path d="M66.1012 103.891L66.1011 103.891L66.1117 103.9C73.3349 110.112 80.3545 113.495 85.9702 113.497C87.9004 113.541 89.8076 113.07 91.4963 112.134L91.5192 112.121L91.5407 112.106C93.2795 110.889 94.7344 109.31 95.8058 107.478C96.875 105.65 97.5369 103.612 97.7465 101.504C98.5987 95.9144 98.4096 90.2149 97.1887 84.6936L97.187 84.6867C94.4035 72.8967 89.7653 61.6237 83.4459 51.2886C77.6758 40.9192 70.3501 31.4958 61.7239 23.3467L61.7183 23.3414L61.7125 23.3363C56.5125 18.7199 51.342 15.4967 46.6936 13.8661C42.0537 12.2384 37.8616 12.1756 34.7003 14.006L34.6817 14.0168L34.6641 14.0291C32.9732 15.2127 31.5625 16.7528 30.5315 18.5408C29.5027 20.3251 28.877 22.313 28.6983 24.3648C27.953 29.7662 28.1706 35.2569 29.3411 40.5824L29.3414 40.5839C32.0243 52.6165 36.6146 64.1424 42.9385 74.7248C49.0368 85.6318 56.8587 95.4809 66.1012 103.891ZM47.9616 71.8136L47.8743 71.8599L47.9585 71.8095C41.9524 61.7795 37.5877 50.8542 35.0294 39.4468C33.9979 34.8081 33.7926 30.0238 34.4229 25.3137L34.4253 25.2961L34.4264 25.2783C34.502 24.0586 34.8296 22.8678 35.3887 21.7812C35.9415 20.7064 36.7089 19.7566 37.6431 18.9903C39.0599 18.1924 41.639 18.1574 45.16 19.4611C48.6766 20.7632 53.027 23.365 57.8557 27.6508C66.0188 35.3922 72.9494 44.3373 78.4066 54.1753L78.4119 54.1848L78.4176 54.1941C84.4123 63.9714 88.8222 74.6356 91.4838 85.7911C92.693 91.9038 92.7043 96.8205 92.0308 100.42C91.3515 104.05 89.9977 106.24 88.5824 107.062L88.5803 107.064C87.2319 107.856 84.8515 107.946 81.5975 106.801C78.3699 105.666 74.3784 103.347 69.9003 99.4947C61.1653 91.4899 53.7598 82.146 47.9616 71.8136Z" fill="#00D8FF" stroke="black"/>
</g>
</svg>
