<svg width="125" height="125" viewBox="0 0 125 125" fill="none" xmlns="http://www.w3.org/2000/svg">
<rect width="125" height="125" rx="15" fill="#97D3FF"/>
<g style="mix-blend-mode:luminosity">
<path d="M97 12.5H27C18.4396 12.5 11.5 19.4396 11.5 28V98C11.5 106.56 18.4396 113.5 27 113.5H97C105.56 113.5 112.5 106.56 112.5 98V28C112.5 19.4396 105.56 12.5 97 12.5Z" fill="#F7DF1E" stroke="black"/>
<path d="M75.7122 85.0121L75.4612 84.5854L75.032 84.8322L67.2195 89.3244L66.8106 89.5595L67.0215 89.9814C69.8456 95.6295 75.6892 99.8281 84.6562 99.8281C89.2296 99.8281 93.2558 98.6355 96.1498 96.3253C99.0568 94.0049 100.781 90.5871 100.781 86.2422C100.781 82.13 99.6219 79.17 97.3993 76.7942C95.2007 74.4439 91.9933 72.7016 87.9822 70.9406L87.9823 70.9405L87.9736 70.9369L85.6345 69.9623C85.6337 69.962 85.6329 69.9616 85.6322 69.9613C83.5768 69.0804 82.1862 68.3759 81.3037 67.5839C80.4606 66.8274 80.0781 65.9877 80.0781 64.7578C80.0781 63.7157 80.4663 62.8252 81.1408 62.1929C81.8167 61.5593 82.8116 61.1562 84.0703 61.1562C85.3613 61.1562 86.3809 61.4312 87.2574 62.0228C88.1419 62.6199 88.9242 63.5688 89.6838 64.9931L89.9401 65.4737L90.3971 65.1773L97.6237 60.4898L98.0095 60.2395L97.7923 59.8342C96.2906 57.0311 94.4212 55.0492 92.1256 53.7739C89.8337 52.5006 87.1558 51.9531 84.0703 51.9531C79.7606 51.9531 76.2139 53.3581 73.7409 55.7036C71.2674 58.0496 69.8984 61.3085 69.8984 64.9531C69.8984 68.8732 71.0595 71.779 73.1274 74.0767C75.1786 76.3558 78.0915 78.0017 81.5296 79.4752L81.5343 79.4772L83.8706 80.4507C86.0365 81.4351 87.6773 82.1895 88.7893 83.0698C89.8617 83.9188 90.4062 84.8567 90.4062 86.2422C90.4062 87.4377 89.8576 88.4654 88.8512 89.2092C87.8349 89.9604 86.336 90.4297 84.4609 90.4297C82.3083 90.4297 80.5999 89.8701 79.1979 88.9278C77.7897 87.9813 76.6644 86.6308 75.7122 85.0121ZM42.504 85.7848L42.2566 85.3829L41.8411 85.6066L34.2239 89.7082L33.811 89.9305L34.0064 90.3568C35.1112 92.7673 36.7764 94.9935 39.16 96.6164C41.5465 98.2412 44.6254 99.2422 48.5234 99.2422C52.802 99.2422 56.4569 98.1476 59.0447 95.7391C61.639 93.3246 63.0859 89.6599 63.0859 84.6797V52.6484V52.1484H62.5859H53.2109H52.7109V52.6484V85.0703C52.7109 87.362 52.2306 88.6638 51.4902 89.4043C50.7524 90.1421 49.6494 90.4297 48.1328 90.4297C46.6156 90.4297 45.617 89.904 44.7998 89.0869C44.0704 88.3574 43.4921 87.407 42.8366 86.3295C42.7282 86.1513 42.6177 85.9696 42.504 85.7848Z" fill="black" stroke="black"/>
</g>
</svg>
