<svg width="125" height="125" viewBox="0 0 125 125" fill="none" xmlns="http://www.w3.org/2000/svg">
<rect width="125" height="125" rx="15" fill="#97D3FF"/>
<g style="mix-blend-mode:luminosity">
<path d="M35.8358 60.8085L35.8439 60.8117L35.8521 60.8146C44.434 63.831 53.4874 65.2837 62.5821 65.1037C71.6772 65.2826 80.7306 63.8287 89.3123 60.811L89.3202 60.8082L89.3281 60.8051C92.6923 59.493 95.0031 58.0959 96.4824 56.7921C97.9419 55.5057 98.6643 54.2432 98.6643 53.1964V40.5V39.5634L97.886 40.0846C95.5914 41.6212 93.1297 42.8924 90.5483 43.8737C81.5829 47.0834 72.1117 48.6483 62.5903 48.4929L62.5822 48.4928L62.5741 48.4929C53.0534 48.6453 43.583 47.0831 34.6157 43.8808C32.0334 42.8995 29.5717 41.626 27.2789 40.085L26.5 39.5615V40.5V53.1786C26.5 54.2404 27.2229 55.5073 28.6846 56.7956C30.1649 58.1004 32.4757 59.4948 35.8358 60.8085Z" fill="#FFDA44" stroke="black"/>
<path d="M35.8353 84.7548L35.8397 84.7564C38.8796 85.9157 42.0143 86.8091 45.2087 87.4266C50.9329 88.5339 56.7517 89.0789 62.582 89.0535C68.4123 89.08 74.2311 88.5363 79.9556 87.4302L79.9556 87.4302C83.1499 86.8127 86.2846 85.9193 89.3246 84.76L89.3281 84.7586C92.6923 83.4465 95.0031 82.0494 96.4824 80.7456C97.9419 79.4592 98.6643 78.1967 98.6643 77.15V65.0428V64.1584L97.9065 64.6144C96.0096 65.7558 94.0159 66.7281 91.9485 67.52C82.5274 70.8549 72.5836 72.4691 62.5913 72.2858L62.5823 72.2856L62.5732 72.2858C52.5799 72.4634 42.6361 70.8432 33.2161 67.5023C31.1493 66.7083 29.1556 65.7359 27.2574 64.5963L26.5 64.1416V65.025V77.1428C26.5 78.1919 27.2248 79.4527 28.6848 80.7378C30.1648 82.0404 32.4752 83.4374 35.8353 84.7548Z" fill="#FFDA44" stroke="black"/>
<path d="M98.6643 88.9608V88.0755L97.9061 88.5325C96.1793 89.5735 94.3702 90.4715 92.4971 91.2177L92.4959 91.2182L91.9446 91.4394C82.5264 94.7833 72.5836 96.4067 62.5909 96.2323L62.582 96.2321L62.5732 96.2323C52.5779 96.4118 42.6323 94.7875 33.2135 91.4372C33.1027 91.3961 33.0103 91.3578 32.9112 91.3168C32.8368 91.2859 32.7586 91.2535 32.666 91.2172C30.7932 90.4711 28.9846 89.5732 27.2581 88.5325L26.5 88.0755V88.9608V99.0929C26.5 101.199 27.5949 103.152 29.4582 104.873C31.321 106.593 33.9888 108.12 37.243 109.392C43.7545 111.936 52.7145 113.5 62.5821 113.5C72.4497 113.5 81.4098 111.936 87.9213 109.392C91.1755 108.12 93.8433 106.593 95.7061 104.873C97.5694 103.152 98.6643 101.199 98.6643 99.0929V88.9608Z" fill="#FFDA44" stroke="black"/>
<path d="M62.5821 41.3143C72.454 41.3143 81.4141 39.7513 87.9245 37.2067C91.1782 35.935 93.8453 34.4084 95.7074 32.6876C97.57 30.9664 98.6643 29.0135 98.6643 26.9071C98.6643 24.8008 97.57 22.8479 95.7074 21.1266C93.8453 19.4059 91.1782 17.8793 87.9245 16.6076C81.4141 14.063 72.454 12.5 62.5821 12.5C52.7103 12.5 43.7502 14.063 37.2397 16.6076C33.9861 17.8793 31.319 19.4059 29.4569 21.1266C27.5942 22.8479 26.5 24.8008 26.5 26.9071C26.5 29.0135 27.5942 30.9664 29.4569 32.6876C31.319 34.4084 33.9861 35.935 37.2397 37.2067C43.7502 39.7513 52.7103 41.3143 62.5821 41.3143Z" fill="#FFDA44" stroke="black"/>
</g>
</svg>
